<svg width="125" height="32" viewBox="0 0 125 32" fill="none" xmlns="http://www.w3.org/2000/svg">
<rect width="125" height="32" fill="#FDF8EB"/>
<path d="M30.1887 11.4043C27.9251 11.4043 26.4922 13.0046 26.4922 16.1773C26.4922 19.0578 27.7931 20.596 29.7927 20.596C30.7941 20.596 31.6474 20.2417 32.0821 19.3655L32.1626 20.4437H33.3347V16.0654H30.0599V17.1685H31.9919V17.4358C31.9919 18.9957 30.968 19.44 30.0857 19.44C28.8492 19.44 27.9669 18.4519 27.9669 16.0903C27.9669 13.5919 28.9394 12.5634 30.163 12.5634C31.0291 12.5634 31.6731 12.9953 31.9243 14.1108L31.9758 14.3501L33.3186 14.0704L33.267 13.8032C32.9386 12.1408 31.7536 11.4043 30.1887 11.4043Z" fill="#2A2A2A"/>
<path fill-rule="evenodd" clip-rule="evenodd" d="M36.5643 20.593C37.4337 20.5805 37.9714 20.2511 38.3804 19.8316V19.8285C38.3932 20.0181 38.4222 20.1952 38.4609 20.3723L38.4737 20.4376H39.8422L39.8165 20.3226C39.7489 20.043 39.736 19.6235 39.736 19.3065V15.9691C39.736 14.664 38.7861 13.94 37.3017 13.94C35.8172 13.94 35.0155 14.7262 34.7257 15.298L34.6581 15.4254L35.6981 15.9598L35.7367 15.8821C35.9718 15.4254 36.5128 15.0183 37.1825 15.0183C37.907 15.0183 38.3675 15.3725 38.3675 16.0841V16.3141L36.3292 16.8734C35.4856 17.1034 34.526 17.6503 34.526 18.7658C34.526 19.7944 35.3278 20.593 36.5643 20.593ZM38.3675 18.8777C38.0648 19.2475 37.5271 19.5893 36.9217 19.5893H36.9185C36.3163 19.5893 35.9332 19.2226 35.9332 18.6757C35.9332 18.1288 36.4097 17.8616 36.9475 17.6969L38.3675 17.2774V18.8777Z" fill="#2A2A2A"/>
<path d="M47.6764 15.0864C47.1387 15.0864 46.572 15.4407 46.2564 15.7452V20.4405H44.8879V16.0621C44.8879 15.4158 44.5466 15.0833 43.8897 15.0833C43.352 15.0833 42.7853 15.4376 42.4697 15.7421V20.4374H41.1012V14.0952H42.4021V14.7943C42.9012 14.2878 43.6128 13.9429 44.347 13.9429C45.2679 13.9429 45.8185 14.35 46.0825 14.9062C46.5816 14.3344 47.3448 13.9429 48.1337 13.9429C49.4893 13.9429 50.0399 14.8192 50.0399 15.77V20.4405H48.6714V16.0621C48.6714 15.4158 48.3301 15.0833 47.6732 15.0833L47.6764 15.0864Z" fill="#2A2A2A"/>
<path fill-rule="evenodd" clip-rule="evenodd" d="M52.7125 20.4404L52.8445 19.8562C53.2148 20.3254 53.8331 20.5927 54.5028 20.5927C56.0001 20.5927 57.0659 19.3373 57.0659 17.1776C57.0659 15.018 56.0549 13.9397 54.5543 13.9397C53.9232 13.9397 53.3211 14.1821 52.925 14.614V11.5563H51.5565V20.4404H52.7125ZM55.6717 17.218C55.6717 18.8401 55.0148 19.5268 54.2388 19.5268C53.7139 19.5268 53.2663 19.2596 52.925 18.9178V15.6053C53.2535 15.2759 53.6882 15.0211 54.213 15.0211C54.989 15.0211 55.6717 15.596 55.6717 17.218Z" fill="#2A2A2A"/>
<path d="M58.1962 11.5563H59.5647V20.4404H58.1962V11.5563Z" fill="#2A2A2A"/>
<path fill-rule="evenodd" clip-rule="evenodd" d="M63.6283 13.9429C61.8154 13.9429 60.7754 15.3537 60.7754 17.3579H60.7818C60.7818 19.4647 61.9893 20.5958 63.6476 20.5958C64.8165 20.5958 65.6859 20.1266 66.1721 19.1882L66.2365 19.0608L65.1578 18.6164L65.0773 18.7563C64.7488 19.3249 64.2626 19.5549 63.683 19.5549C62.7879 19.5549 62.1181 18.8681 62.1181 17.6376V17.5599H66.2461V16.9633C66.2461 14.6793 64.9034 13.9429 63.6283 13.9429ZM64.9581 16.5966V16.6836H62.131C62.2501 15.5152 62.936 15.0087 63.6315 15.0087C64.327 15.0087 64.9581 15.4407 64.9581 16.5966Z" fill="#2A2A2A"/>
<path fill-rule="evenodd" clip-rule="evenodd" d="M69.8812 11.5566H71.8614L74.4664 20.4407H73.0078L72.3638 18.107H69.3144L68.6704 20.4407H67.2891L69.8812 11.5566ZM72.045 17.0132L70.8343 12.6473L69.6236 17.0132H72.045Z" fill="#F0681C"/>
<path d="M75.4903 14.0956L76.569 18.6262L77.7669 14.0956H79.0548L80.2269 18.6262L81.3443 14.0956H82.5936L80.8967 20.441H79.5411L78.3561 15.9228L77.1583 20.441H75.8155L74.1186 14.0956H75.4903Z" fill="#F0681C"/>
<path fill-rule="evenodd" clip-rule="evenodd" d="M84.809 20.5933C85.6784 20.5808 86.2162 20.2514 86.6251 19.8319V19.8288C86.6412 20.0184 86.667 20.1955 86.7056 20.3726L86.7185 20.4379H88.087L88.0612 20.3229C87.9936 20.0433 87.9807 19.6238 87.9807 19.3068V15.9694C87.9807 14.6643 87.0308 13.9403 85.5464 13.9403C84.062 13.9403 83.2602 14.7265 82.9704 15.2983L82.9028 15.4257L83.9428 15.9601L83.9815 15.8824C84.2165 15.4257 84.7575 15.0186 85.4273 15.0186C86.1518 15.0186 86.6122 15.3728 86.6122 16.0844V16.3144L84.574 16.8737C83.7303 17.1037 82.7708 17.6506 82.7708 18.7661C82.7708 19.7947 83.5725 20.5933 84.809 20.5933ZM86.6122 18.878C86.3095 19.2478 85.7718 19.5896 85.1664 19.5896H85.1632C84.5611 19.5896 84.1779 19.2229 84.1779 18.676C84.1779 18.1291 84.6512 17.8619 85.1922 17.6972L86.6122 17.2777V18.878Z" fill="#F0681C"/>
<path d="M89.3105 14.0956H90.5856V15.2889C91.455 14.31 92.231 14.0211 92.8879 14.0055V15.236C91.967 15.236 91.2425 15.7301 90.679 16.2273V20.4409H89.3105V14.0956Z" fill="#F0681C"/>
<path fill-rule="evenodd" clip-rule="evenodd" d="M95.8826 13.9432C94.0697 13.9432 93.0297 15.354 93.0297 17.3582H93.0361C93.0361 19.465 94.2436 20.5961 95.9019 20.5961C97.0708 20.5961 97.9402 20.1269 98.4264 19.1885L98.4908 19.0611L97.4121 18.6167L97.3316 18.7566C97.0031 19.3252 96.5169 19.5552 95.9373 19.5552C95.0422 19.5552 94.3724 18.8684 94.3724 17.6379V17.5602H98.5004V16.9636C98.5004 14.6796 97.1577 13.9432 95.8826 13.9432ZM97.2124 16.5969V16.687L97.2092 16.6839H94.3821C94.5012 15.5155 95.1838 15.009 95.8826 15.009C96.5813 15.009 97.2124 15.441 97.2124 16.5969Z" fill="#F0681C"/>
</svg>
