<svg width="512" height="512" viewBox="0 0 512 512" fill="none" xmlns="http://www.w3.org/2000/svg">
<rect width="512" height="512" fill="#00041A"/>
<path d="M137.104 254.13C137.104 237.72 140.007 221.688 145.814 206.036C151.62 190.13 160.078 175.74 171.186 162.864C182.547 149.736 196.307 139.385 212.465 131.811C228.622 123.984 246.926 120.071 267.376 120.071C291.613 120.071 312.567 125.625 330.24 136.734C347.913 147.59 361.041 161.602 369.625 178.769L336.299 201.113C331.25 190.256 324.812 181.673 316.985 175.361C309.412 169.049 301.08 164.631 291.991 162.107C283.155 159.582 274.445 158.32 265.861 158.32C251.723 158.32 239.352 161.223 228.749 167.03C218.145 172.584 209.183 180.032 201.861 189.373C194.792 198.714 189.364 209.191 185.577 220.805C182.042 232.418 180.275 244.032 180.275 255.645C180.275 268.521 182.421 281.018 186.713 293.136C191.005 305.002 196.938 315.606 204.512 324.947C212.338 334.036 221.553 341.231 232.157 346.533C242.76 351.835 254.374 354.486 266.997 354.486C275.581 354.486 284.544 352.971 293.885 349.941C303.226 346.912 311.81 342.241 319.636 335.929C327.715 329.365 334.027 320.781 338.571 310.178L373.79 330.249C368.236 343.63 359.526 354.99 347.66 364.332C336.047 373.673 322.918 380.742 308.275 385.539C293.885 390.336 279.621 392.734 265.482 392.734C246.547 392.734 229.254 388.821 213.601 380.994C197.948 372.916 184.441 362.312 173.08 349.184C161.719 335.803 152.883 320.908 146.571 304.497C140.259 287.835 137.104 271.046 137.104 254.13Z" fill="url(#paint0_linear_3397_24346)"/>
<path fill-rule="evenodd" clip-rule="evenodd" d="M373.79 330.249C368.236 343.63 359.526 354.991 347.66 364.332C336.046 373.674 322.918 380.743 308.275 385.539C293.885 390.336 279.62 392.735 265.482 392.735C246.547 392.735 229.253 388.822 213.601 380.995C197.948 372.916 184.441 362.313 173.08 349.184C161.719 335.804 152.882 320.908 146.571 304.498C140.259 287.835 137.103 271.046 137.103 254.131C137.103 237.721 140.007 221.689 145.813 206.036C151.62 190.131 160.078 175.74 171.186 162.865C182.547 149.736 196.307 139.385 212.464 131.811C228.622 123.985 246.926 120.072 267.376 120.072C291.613 120.072 312.567 125.626 330.24 136.734C347.912 147.59 361.041 161.602 369.624 178.77L336.299 201.113C335.518 199.434 334.703 197.809 333.856 196.238C329.224 187.656 323.601 180.697 316.985 175.362C309.411 169.05 301.08 164.632 291.991 162.107C283.155 159.582 274.445 158.32 265.861 158.32C251.723 158.32 239.352 161.224 228.748 167.03C218.145 172.584 209.182 180.032 201.861 189.373C194.792 198.715 189.364 209.192 185.577 220.805C182.042 232.419 180.275 244.032 180.275 255.646C180.275 268.522 182.421 281.019 186.713 293.137C191.005 305.003 196.938 315.606 204.512 324.948C212.338 334.036 221.553 341.232 232.157 346.534C242.76 351.835 254.374 354.486 266.997 354.486C275.581 354.486 284.543 352.971 293.885 349.942C303.226 346.912 311.81 342.242 319.636 335.93C326.428 330.411 331.971 323.465 336.265 315.091C337.079 313.505 337.847 311.867 338.571 310.178L373.79 330.249ZM208.664 321.478C216.017 330.002 224.645 336.729 234.576 341.695C244.38 346.597 255.158 349.076 266.997 349.076C274.939 349.076 283.337 347.675 292.216 344.796C300.912 341.975 308.911 337.628 316.235 331.723C323.558 325.77 329.363 317.93 333.599 308.047L335.985 302.478L380.617 327.913L378.787 332.324C372.866 346.587 363.579 358.68 351.03 368.565C338.899 378.318 325.2 385.686 309.973 390.676C295.075 395.641 280.238 398.145 265.482 398.145C245.778 398.145 227.646 394.066 211.181 385.834L211.119 385.803C194.863 377.413 180.807 366.382 168.989 352.725L168.956 352.686C157.2 338.841 148.051 323.418 141.521 306.44L141.512 306.414C134.981 289.172 131.693 271.735 131.693 254.131C131.693 237.072 134.713 220.408 140.736 204.167C146.768 187.65 155.559 172.696 167.09 159.331L167.095 159.324C178.959 145.615 193.325 134.813 210.137 126.927C227.118 118.708 246.236 114.662 267.376 114.662C292.453 114.662 314.434 120.416 333.095 132.139C351.544 143.478 365.395 158.215 374.463 176.35L376.594 180.611L334.06 209.128L331.394 203.395C326.627 193.147 320.66 185.275 313.589 179.573L313.555 179.546L313.522 179.518C306.51 173.674 298.859 169.63 290.543 167.32L290.505 167.309C282.118 164.913 273.908 163.73 265.861 163.73C252.477 163.73 241.029 166.474 231.347 171.775L231.303 171.799L231.259 171.823C221.342 177.017 212.986 183.959 206.147 192.675C199.48 201.494 194.34 211.401 190.737 222.432C187.361 233.541 185.685 244.607 185.685 255.646C185.685 267.901 187.724 279.782 191.807 291.314C195.893 302.607 201.516 312.649 208.664 321.478Z" fill="url(#paint1_linear_3397_24346)"/>
<path fill-rule="evenodd" clip-rule="evenodd" d="M373.79 330.249C368.236 343.63 359.526 354.991 347.66 364.332C336.046 373.674 322.918 380.743 308.275 385.539C293.885 390.336 279.62 392.735 265.482 392.735C246.547 392.735 229.253 388.822 213.601 380.995C197.948 372.916 184.441 362.313 173.08 349.184C161.719 335.804 152.882 320.908 146.571 304.498C140.259 287.835 137.103 271.046 137.103 254.131C137.103 237.721 140.007 221.689 145.813 206.036C151.62 190.131 160.078 175.74 171.186 162.865C182.547 149.736 196.307 139.385 212.464 131.811C228.622 123.985 246.926 120.072 267.376 120.072C291.613 120.072 312.567 125.626 330.24 136.734C347.912 147.59 361.041 161.602 369.624 178.77L336.299 201.113C335.518 199.434 334.703 197.809 333.856 196.238C329.224 187.656 323.601 180.697 316.985 175.362C309.411 169.05 301.08 164.632 291.991 162.107C283.155 159.582 274.445 158.32 265.861 158.32C251.723 158.32 239.352 161.224 228.748 167.03C218.145 172.584 209.182 180.032 201.861 189.373C194.792 198.715 189.364 209.192 185.577 220.805C182.042 232.419 180.275 244.032 180.275 255.646C180.275 268.522 182.421 281.019 186.713 293.137C191.005 305.003 196.938 315.606 204.512 324.948C212.338 334.036 221.553 341.232 232.157 346.534C242.76 351.835 254.374 354.486 266.997 354.486C275.581 354.486 284.543 352.971 293.885 349.942C303.226 346.912 311.81 342.242 319.636 335.93C326.428 330.411 331.971 323.465 336.265 315.091C337.079 313.505 337.847 311.867 338.571 310.178L373.79 330.249ZM208.664 321.478C216.017 330.002 224.645 336.729 234.576 341.695C244.38 346.597 255.158 349.076 266.997 349.076C274.939 349.076 283.337 347.675 292.216 344.796C300.912 341.975 308.911 337.628 316.235 331.723C323.558 325.77 329.363 317.93 333.599 308.047L335.985 302.478L380.617 327.913L378.787 332.324C372.866 346.587 363.579 358.68 351.03 368.565C338.899 378.318 325.2 385.686 309.973 390.676C295.075 395.641 280.238 398.145 265.482 398.145C245.778 398.145 227.646 394.066 211.181 385.834L211.119 385.803C194.863 377.413 180.807 366.382 168.989 352.725L168.956 352.686C157.2 338.841 148.051 323.418 141.521 306.44L141.512 306.414C134.981 289.172 131.693 271.735 131.693 254.131C131.693 237.072 134.713 220.408 140.736 204.167C146.768 187.65 155.559 172.696 167.09 159.331L167.095 159.324C178.959 145.615 193.325 134.813 210.137 126.927C227.118 118.708 246.236 114.662 267.376 114.662C292.453 114.662 314.434 120.416 333.095 132.139C351.544 143.478 365.395 158.215 374.463 176.35L376.594 180.611L334.06 209.128L331.394 203.395C326.627 193.147 320.66 185.275 313.589 179.573L313.555 179.546L313.522 179.518C306.51 173.674 298.859 169.63 290.543 167.32L290.505 167.309C282.118 164.913 273.908 163.73 265.861 163.73C252.477 163.73 241.029 166.474 231.347 171.775L231.303 171.799L231.259 171.823C221.342 177.017 212.986 183.959 206.147 192.675C199.48 201.494 194.34 211.401 190.737 222.432C187.361 233.541 185.685 244.607 185.685 255.646C185.685 267.901 187.724 279.782 191.807 291.314C195.893 302.607 201.516 312.649 208.664 321.478Z" fill="url(#paint2_linear_3397_24346)"/>
<defs>
<linearGradient id="paint0_linear_3397_24346" x1="137.104" y1="120.071" x2="390.116" y2="135.102" gradientUnits="userSpaceOnUse">
<stop stop-color="#F9BC2E"/>
<stop offset="0.132392" stop-color="#E29A1E"/>
<stop offset="0.302201" stop-color="#FFCD38"/>
<stop offset="0.728712" stop-color="#F0AF30"/>
<stop offset="0.834676" stop-color="#E29A1E"/>
<stop offset="0.960427" stop-color="#FFCD38"/>
<stop offset="1" stop-color="#DD931A"/>
</linearGradient>
<linearGradient id="paint1_linear_3397_24346" x1="131.693" y1="114.662" x2="397.766" y2="130.651" gradientUnits="userSpaceOnUse">
<stop stop-color="#F9BC2E"/>
<stop offset="0.132392" stop-color="#E29A1E"/>
<stop offset="0.302201" stop-color="#FFCD38"/>
<stop offset="0.728712" stop-color="#F0AF30"/>
<stop offset="0.834676" stop-color="#E29A1E"/>
<stop offset="0.960427" stop-color="#FFCD38"/>
<stop offset="1" stop-color="#DD931A"/>
</linearGradient>
<linearGradient id="paint2_linear_3397_24346" x1="131.693" y1="114.662" x2="397.766" y2="130.651" gradientUnits="userSpaceOnUse">
<stop stop-color="#F9BC2E"/>
<stop offset="0.132392" stop-color="#E29A1E"/>
<stop offset="0.302201" stop-color="#FFCD38"/>
<stop offset="0.728712" stop-color="#F0AF30"/>
<stop offset="0.834676" stop-color="#E29A1E"/>
<stop offset="0.960427" stop-color="#FFCD38"/>
<stop offset="1" stop-color="#DD931A"/>
</linearGradient>
</defs>
</svg>
