<svg width="33" height="32" viewBox="0 0 33 32" fill="none" xmlns="http://www.w3.org/2000/svg">
<path d="M16.8314 0.0788574C7.95864 0.0788574 0.765625 7.20702 0.765625 16.0001C0.765625 24.7931 7.95864 31.9213 16.8314 31.9213C25.7042 31.9213 32.8972 24.7931 32.8972 16.0001C32.8972 7.20702 25.7042 0.0788574 16.8314 0.0788574ZM22.3842 16.844L14.3513 21.8194C14.1887 21.92 14.0039 21.9705 13.8191 21.9705C13.6516 21.9705 13.484 21.9292 13.3322 21.8456C13.013 21.6703 12.815 21.3374 12.815 20.9755V11.0247C12.815 10.6627 13.013 10.3299 13.3322 10.1545C13.6514 9.97812 14.0417 9.98882 14.3513 10.1807L22.3842 15.1561C22.6776 15.3383 22.8561 15.6571 22.8561 16.0001C22.8561 16.3431 22.6776 16.6619 22.3842 16.844Z" fill="#FEEC29"/>
</svg>
