<svg width="197" height="50" viewBox="0 0 197 50" fill="none" xmlns="http://www.w3.org/2000/svg">
<g style="mix-blend-mode:overlay" filter="url(#filter0_df_3542_1418)">
<mask id="path-1-outside-1_3542_1418" maskUnits="userSpaceOnUse" x="8.6084" y="8.53284" width="180" height="33" fill="black">
<rect fill="white" x="8.6084" y="8.53284" width="180" height="33"/>
<path d="M9.6084 24.668C9.6084 22.8205 9.93526 21.0156 10.589 19.2534C11.2427 17.4628 12.1949 15.8427 13.4455 14.3931C14.7245 12.9151 16.2735 11.7498 18.0926 10.8971C19.9117 10.016 21.9723 9.57547 24.2746 9.57547C27.0031 9.57547 29.3622 10.2008 31.3518 11.4514C33.3414 12.6736 34.8194 14.251 35.7858 16.1838L32.034 18.6992C31.4655 17.477 30.7407 16.5106 29.8596 15.8001C29.007 15.0895 28.069 14.5921 27.0458 14.3079C26.051 14.0236 25.0704 13.8815 24.104 13.8815C22.5123 13.8815 21.1196 14.2084 19.9259 14.8621C18.7321 15.4874 17.7231 16.3259 16.8988 17.3775C16.103 18.4292 15.4919 19.6087 15.0656 20.9162C14.6677 22.2236 14.4687 23.5311 14.4687 24.8385C14.4687 26.2881 14.7103 27.695 15.1935 29.0593C15.6767 30.3952 16.3446 31.5889 17.1973 32.6406C18.0784 33.6638 19.1158 34.4738 20.3096 35.0707C21.5033 35.6676 22.8108 35.966 24.2319 35.966C25.1983 35.966 26.2073 35.7955 27.259 35.4544C28.3106 35.1133 29.277 34.5875 30.1581 33.877C31.0676 33.138 31.7782 32.1716 32.2898 30.9778L36.2548 33.2374C35.6295 34.7438 34.6489 36.0229 33.313 37.0745C32.0056 38.1262 30.5276 38.922 28.879 39.462C27.2589 40.0021 25.6531 40.2721 24.0614 40.2721C21.9297 40.2721 19.9827 39.8315 18.2205 38.9504C16.4583 38.0409 14.9377 36.8471 13.6586 35.3692C12.3796 33.8627 11.3848 32.1858 10.6743 30.3383C9.96368 28.4624 9.6084 26.5723 9.6084 24.668Z"/>
<path d="M51.5531 9.74601H56.0723L67.8394 40.0163H62.8085L59.611 31.7879H47.9292L44.7743 40.0163H39.7008L51.5531 9.74601ZM58.673 28.2492L53.8127 14.99L48.7819 28.2492H58.673Z"/>
<path d="M72.0518 36.3497L90.3419 13.9668H72.4782V9.74601H96.0122V13.4125L78.1911 35.7955H96.0549V40.0163H72.0518V36.3497Z"/>
<path d="M124.275 35.7955V40.0163H103.512V9.74601H123.891V13.9668H108.287V22.5789H121.802V26.5439H108.287V35.7955H124.275Z"/>
<path d="M144.378 40.2295C141.962 40.2295 139.916 39.8173 138.239 38.9931C136.591 38.1688 135.255 37.0461 134.231 35.625C133.237 34.2038 132.498 32.5837 132.014 30.7647C131.56 28.9456 131.332 27.0555 131.332 25.0943V9.74601H136.107V25.0943C136.107 26.487 136.249 27.8371 136.534 29.1446C136.818 30.4236 137.273 31.5747 137.898 32.5979C138.523 33.6211 139.362 34.4312 140.413 35.0281C141.493 35.625 142.815 35.9234 144.378 35.9234C145.97 35.9234 147.292 35.625 148.343 35.0281C149.423 34.4028 150.262 33.5785 150.859 32.5553C151.484 31.5037 151.939 30.3383 152.223 29.0593C152.507 27.7803 152.649 26.4586 152.649 25.0943V9.74601H157.467V25.0943C157.467 27.1692 157.211 29.1303 156.7 30.9778C156.216 32.7969 155.449 34.4028 154.397 35.7955C153.374 37.1598 152.038 38.2399 150.39 39.0357C148.741 39.8315 146.737 40.2295 144.378 40.2295Z"/>
<path d="M184.282 16.8659C183.998 16.5533 183.586 16.2264 183.046 15.8853C182.506 15.5158 181.866 15.1748 181.127 14.8621C180.388 14.5495 179.592 14.2937 178.74 14.0947C177.887 13.8957 177.006 13.7963 176.096 13.7963C174.107 13.7963 172.629 14.1658 171.662 14.9047C170.696 15.6437 170.213 16.667 170.213 17.9744C170.213 18.9408 170.483 19.7082 171.023 20.2767C171.563 20.8167 172.387 21.2714 173.496 21.6409C174.604 22.0104 175.997 22.4084 177.674 22.8347C179.72 23.3179 181.497 23.9006 183.003 24.5827C184.509 25.2364 185.66 26.1175 186.456 27.226C187.252 28.3345 187.65 29.7983 187.65 31.6173C187.65 33.1522 187.366 34.4738 186.797 35.5823C186.229 36.6908 185.433 37.6003 184.41 38.3109C183.387 38.9931 182.207 39.5047 180.871 39.8457C179.535 40.1584 178.1 40.3147 176.565 40.3147C175.059 40.3147 173.552 40.1584 172.046 39.8457C170.568 39.5331 169.147 39.0783 167.783 38.4814C166.447 37.8561 165.21 37.1029 164.073 36.2218L166.248 32.129C166.617 32.4984 167.143 32.9106 167.825 33.3653C168.536 33.7917 169.346 34.2038 170.255 34.6017C171.193 34.9997 172.202 35.3407 173.282 35.625C174.391 35.8808 175.514 36.0087 176.65 36.0087C178.555 36.0087 180.004 35.6818 180.999 35.0281C182.022 34.3459 182.534 33.3796 182.534 32.129C182.534 31.1057 182.207 30.2957 181.553 29.6988C180.9 29.0735 179.947 28.5477 178.697 28.1213C177.446 27.695 175.954 27.2687 174.22 26.8423C172.231 26.3023 170.568 25.7196 169.232 25.0943C167.896 24.4406 166.887 23.6163 166.205 22.6215C165.551 21.5983 165.225 20.3051 165.225 18.7418C165.225 16.7522 165.708 15.0753 166.674 13.711C167.64 12.3183 168.948 11.2808 170.596 10.5987C172.273 9.88812 174.149 9.53284 176.224 9.53284C177.588 9.53284 178.882 9.68916 180.104 10.0018C181.326 10.286 182.463 10.684 183.515 11.1956C184.595 11.7072 185.575 12.2898 186.456 12.9436L184.282 16.8659Z"/>
</mask>
<path d="M9.6084 24.668C9.6084 22.8205 9.93526 21.0156 10.589 19.2534C11.2427 17.4628 12.1949 15.8427 13.4455 14.3931C14.7245 12.9151 16.2735 11.7498 18.0926 10.8971C19.9117 10.016 21.9723 9.57547 24.2746 9.57547C27.0031 9.57547 29.3622 10.2008 31.3518 11.4514C33.3414 12.6736 34.8194 14.251 35.7858 16.1838L32.034 18.6992C31.4655 17.477 30.7407 16.5106 29.8596 15.8001C29.007 15.0895 28.069 14.5921 27.0458 14.3079C26.051 14.0236 25.0704 13.8815 24.104 13.8815C22.5123 13.8815 21.1196 14.2084 19.9259 14.8621C18.7321 15.4874 17.7231 16.3259 16.8988 17.3775C16.103 18.4292 15.4919 19.6087 15.0656 20.9162C14.6677 22.2236 14.4687 23.5311 14.4687 24.8385C14.4687 26.2881 14.7103 27.695 15.1935 29.0593C15.6767 30.3952 16.3446 31.5889 17.1973 32.6406C18.0784 33.6638 19.1158 34.4738 20.3096 35.0707C21.5033 35.6676 22.8108 35.966 24.2319 35.966C25.1983 35.966 26.2073 35.7955 27.259 35.4544C28.3106 35.1133 29.277 34.5875 30.1581 33.877C31.0676 33.138 31.7782 32.1716 32.2898 30.9778L36.2548 33.2374C35.6295 34.7438 34.6489 36.0229 33.313 37.0745C32.0056 38.1262 30.5276 38.922 28.879 39.462C27.2589 40.0021 25.6531 40.2721 24.0614 40.2721C21.9297 40.2721 19.9827 39.8315 18.2205 38.9504C16.4583 38.0409 14.9377 36.8471 13.6586 35.3692C12.3796 33.8627 11.3848 32.1858 10.6743 30.3383C9.96368 28.4624 9.6084 26.5723 9.6084 24.668Z" fill="url(#paint0_linear_3542_1418)"/>
<path d="M51.5531 9.74601H56.0723L67.8394 40.0163H62.8085L59.611 31.7879H47.9292L44.7743 40.0163H39.7008L51.5531 9.74601ZM58.673 28.2492L53.8127 14.99L48.7819 28.2492H58.673Z" fill="url(#paint1_linear_3542_1418)"/>
<path d="M72.0518 36.3497L90.3419 13.9668H72.4782V9.74601H96.0122V13.4125L78.1911 35.7955H96.0549V40.0163H72.0518V36.3497Z" fill="url(#paint2_linear_3542_1418)"/>
<path d="M124.275 35.7955V40.0163H103.512V9.74601H123.891V13.9668H108.287V22.5789H121.802V26.5439H108.287V35.7955H124.275Z" fill="url(#paint3_linear_3542_1418)"/>
<path d="M144.378 40.2295C141.962 40.2295 139.916 39.8173 138.239 38.9931C136.591 38.1688 135.255 37.0461 134.231 35.625C133.237 34.2038 132.498 32.5837 132.014 30.7647C131.56 28.9456 131.332 27.0555 131.332 25.0943V9.74601H136.107V25.0943C136.107 26.487 136.249 27.8371 136.534 29.1446C136.818 30.4236 137.273 31.5747 137.898 32.5979C138.523 33.6211 139.362 34.4312 140.413 35.0281C141.493 35.625 142.815 35.9234 144.378 35.9234C145.97 35.9234 147.292 35.625 148.343 35.0281C149.423 34.4028 150.262 33.5785 150.859 32.5553C151.484 31.5037 151.939 30.3383 152.223 29.0593C152.507 27.7803 152.649 26.4586 152.649 25.0943V9.74601H157.467V25.0943C157.467 27.1692 157.211 29.1303 156.7 30.9778C156.216 32.7969 155.449 34.4028 154.397 35.7955C153.374 37.1598 152.038 38.2399 150.39 39.0357C148.741 39.8315 146.737 40.2295 144.378 40.2295Z" fill="url(#paint4_linear_3542_1418)"/>
<path d="M184.282 16.8659C183.998 16.5533 183.586 16.2264 183.046 15.8853C182.506 15.5158 181.866 15.1748 181.127 14.8621C180.388 14.5495 179.592 14.2937 178.74 14.0947C177.887 13.8957 177.006 13.7963 176.096 13.7963C174.107 13.7963 172.629 14.1658 171.662 14.9047C170.696 15.6437 170.213 16.667 170.213 17.9744C170.213 18.9408 170.483 19.7082 171.023 20.2767C171.563 20.8167 172.387 21.2714 173.496 21.6409C174.604 22.0104 175.997 22.4084 177.674 22.8347C179.72 23.3179 181.497 23.9006 183.003 24.5827C184.509 25.2364 185.66 26.1175 186.456 27.226C187.252 28.3345 187.65 29.7983 187.65 31.6173C187.65 33.1522 187.366 34.4738 186.797 35.5823C186.229 36.6908 185.433 37.6003 184.41 38.3109C183.387 38.9931 182.207 39.5047 180.871 39.8457C179.535 40.1584 178.1 40.3147 176.565 40.3147C175.059 40.3147 173.552 40.1584 172.046 39.8457C170.568 39.5331 169.147 39.0783 167.783 38.4814C166.447 37.8561 165.21 37.1029 164.073 36.2218L166.248 32.129C166.617 32.4984 167.143 32.9106 167.825 33.3653C168.536 33.7917 169.346 34.2038 170.255 34.6017C171.193 34.9997 172.202 35.3407 173.282 35.625C174.391 35.8808 175.514 36.0087 176.65 36.0087C178.555 36.0087 180.004 35.6818 180.999 35.0281C182.022 34.3459 182.534 33.3796 182.534 32.129C182.534 31.1057 182.207 30.2957 181.553 29.6988C180.9 29.0735 179.947 28.5477 178.697 28.1213C177.446 27.695 175.954 27.2687 174.22 26.8423C172.231 26.3023 170.568 25.7196 169.232 25.0943C167.896 24.4406 166.887 23.6163 166.205 22.6215C165.551 21.5983 165.225 20.3051 165.225 18.7418C165.225 16.7522 165.708 15.0753 166.674 13.711C167.64 12.3183 168.948 11.2808 170.596 10.5987C172.273 9.88812 174.149 9.53284 176.224 9.53284C177.588 9.53284 178.882 9.68916 180.104 10.0018C181.326 10.286 182.463 10.684 183.515 11.1956C184.595 11.7072 185.575 12.2898 186.456 12.9436L184.282 16.8659Z" fill="url(#paint5_linear_3542_1418)"/>
<path d="M9.6084 24.668C9.6084 22.8205 9.93526 21.0156 10.589 19.2534C11.2427 17.4628 12.1949 15.8427 13.4455 14.3931C14.7245 12.9151 16.2735 11.7498 18.0926 10.8971C19.9117 10.016 21.9723 9.57547 24.2746 9.57547C27.0031 9.57547 29.3622 10.2008 31.3518 11.4514C33.3414 12.6736 34.8194 14.251 35.7858 16.1838L32.034 18.6992C31.4655 17.477 30.7407 16.5106 29.8596 15.8001C29.007 15.0895 28.069 14.5921 27.0458 14.3079C26.051 14.0236 25.0704 13.8815 24.104 13.8815C22.5123 13.8815 21.1196 14.2084 19.9259 14.8621C18.7321 15.4874 17.7231 16.3259 16.8988 17.3775C16.103 18.4292 15.4919 19.6087 15.0656 20.9162C14.6677 22.2236 14.4687 23.5311 14.4687 24.8385C14.4687 26.2881 14.7103 27.695 15.1935 29.0593C15.6767 30.3952 16.3446 31.5889 17.1973 32.6406C18.0784 33.6638 19.1158 34.4738 20.3096 35.0707C21.5033 35.6676 22.8108 35.966 24.2319 35.966C25.1983 35.966 26.2073 35.7955 27.259 35.4544C28.3106 35.1133 29.277 34.5875 30.1581 33.877C31.0676 33.138 31.7782 32.1716 32.2898 30.9778L36.2548 33.2374C35.6295 34.7438 34.6489 36.0229 33.313 37.0745C32.0056 38.1262 30.5276 38.922 28.879 39.462C27.2589 40.0021 25.6531 40.2721 24.0614 40.2721C21.9297 40.2721 19.9827 39.8315 18.2205 38.9504C16.4583 38.0409 14.9377 36.8471 13.6586 35.3692C12.3796 33.8627 11.3848 32.1858 10.6743 30.3383C9.96368 28.4624 9.6084 26.5723 9.6084 24.668Z" stroke="url(#paint6_linear_3542_1418)" stroke-width="1.03226" mask="url(#path-1-outside-1_3542_1418)"/>
<path d="M51.5531 9.74601H56.0723L67.8394 40.0163H62.8085L59.611 31.7879H47.9292L44.7743 40.0163H39.7008L51.5531 9.74601ZM58.673 28.2492L53.8127 14.99L48.7819 28.2492H58.673Z" stroke="url(#paint7_linear_3542_1418)" stroke-width="1.03226" mask="url(#path-1-outside-1_3542_1418)"/>
<path d="M72.0518 36.3497L90.3419 13.9668H72.4782V9.74601H96.0122V13.4125L78.1911 35.7955H96.0549V40.0163H72.0518V36.3497Z" stroke="url(#paint8_linear_3542_1418)" stroke-width="1.03226" mask="url(#path-1-outside-1_3542_1418)"/>
<path d="M124.275 35.7955V40.0163H103.512V9.74601H123.891V13.9668H108.287V22.5789H121.802V26.5439H108.287V35.7955H124.275Z" stroke="url(#paint9_linear_3542_1418)" stroke-width="1.03226" mask="url(#path-1-outside-1_3542_1418)"/>
<path d="M144.378 40.2295C141.962 40.2295 139.916 39.8173 138.239 38.9931C136.591 38.1688 135.255 37.0461 134.231 35.625C133.237 34.2038 132.498 32.5837 132.014 30.7647C131.56 28.9456 131.332 27.0555 131.332 25.0943V9.74601H136.107V25.0943C136.107 26.487 136.249 27.8371 136.534 29.1446C136.818 30.4236 137.273 31.5747 137.898 32.5979C138.523 33.6211 139.362 34.4312 140.413 35.0281C141.493 35.625 142.815 35.9234 144.378 35.9234C145.97 35.9234 147.292 35.625 148.343 35.0281C149.423 34.4028 150.262 33.5785 150.859 32.5553C151.484 31.5037 151.939 30.3383 152.223 29.0593C152.507 27.7803 152.649 26.4586 152.649 25.0943V9.74601H157.467V25.0943C157.467 27.1692 157.211 29.1303 156.7 30.9778C156.216 32.7969 155.449 34.4028 154.397 35.7955C153.374 37.1598 152.038 38.2399 150.39 39.0357C148.741 39.8315 146.737 40.2295 144.378 40.2295Z" stroke="url(#paint10_linear_3542_1418)" stroke-width="1.03226" mask="url(#path-1-outside-1_3542_1418)"/>
<path d="M184.282 16.8659C183.998 16.5533 183.586 16.2264 183.046 15.8853C182.506 15.5158 181.866 15.1748 181.127 14.8621C180.388 14.5495 179.592 14.2937 178.74 14.0947C177.887 13.8957 177.006 13.7963 176.096 13.7963C174.107 13.7963 172.629 14.1658 171.662 14.9047C170.696 15.6437 170.213 16.667 170.213 17.9744C170.213 18.9408 170.483 19.7082 171.023 20.2767C171.563 20.8167 172.387 21.2714 173.496 21.6409C174.604 22.0104 175.997 22.4084 177.674 22.8347C179.72 23.3179 181.497 23.9006 183.003 24.5827C184.509 25.2364 185.66 26.1175 186.456 27.226C187.252 28.3345 187.65 29.7983 187.65 31.6173C187.65 33.1522 187.366 34.4738 186.797 35.5823C186.229 36.6908 185.433 37.6003 184.41 38.3109C183.387 38.9931 182.207 39.5047 180.871 39.8457C179.535 40.1584 178.1 40.3147 176.565 40.3147C175.059 40.3147 173.552 40.1584 172.046 39.8457C170.568 39.5331 169.147 39.0783 167.783 38.4814C166.447 37.8561 165.21 37.1029 164.073 36.2218L166.248 32.129C166.617 32.4984 167.143 32.9106 167.825 33.3653C168.536 33.7917 169.346 34.2038 170.255 34.6017C171.193 34.9997 172.202 35.3407 173.282 35.625C174.391 35.8808 175.514 36.0087 176.65 36.0087C178.555 36.0087 180.004 35.6818 180.999 35.0281C182.022 34.3459 182.534 33.3796 182.534 32.129C182.534 31.1057 182.207 30.2957 181.553 29.6988C180.9 29.0735 179.947 28.5477 178.697 28.1213C177.446 27.695 175.954 27.2687 174.22 26.8423C172.231 26.3023 170.568 25.7196 169.232 25.0943C167.896 24.4406 166.887 23.6163 166.205 22.6215C165.551 21.5983 165.225 20.3051 165.225 18.7418C165.225 16.7522 165.708 15.0753 166.674 13.711C167.64 12.3183 168.948 11.2808 170.596 10.5987C172.273 9.88812 174.149 9.53284 176.224 9.53284C177.588 9.53284 178.882 9.68916 180.104 10.0018C181.326 10.286 182.463 10.684 183.515 11.1956C184.595 11.7072 185.575 12.2898 186.456 12.9436L184.282 16.8659Z" stroke="url(#paint11_linear_3542_1418)" stroke-width="1.03226" mask="url(#path-1-outside-1_3542_1418)"/>
</g>
<path d="M184.282 16.9422C183.998 16.6296 183.586 16.3027 183.046 15.9616C182.506 15.5921 181.866 15.2511 181.127 14.9384C180.388 14.6258 179.593 14.3699 178.74 14.171C177.887 13.972 177.006 13.8725 176.097 13.8725C174.107 13.8725 172.629 14.242 171.663 14.981C170.696 15.72 170.213 16.7433 170.213 18.0507C170.213 19.0171 170.483 19.7845 171.023 20.3529C171.563 20.893 172.387 21.3477 173.496 21.7172C174.604 22.0867 175.997 22.4847 177.674 22.911C179.72 23.3942 181.497 23.9769 183.003 24.659C184.51 25.3127 185.661 26.1938 186.457 27.3023C187.253 28.4108 187.65 29.8746 187.65 31.6936C187.65 33.2285 187.366 34.5501 186.798 35.6586C186.229 36.7671 185.433 37.6766 184.41 38.3872C183.387 39.0694 182.207 39.581 180.872 39.922C179.536 40.2347 178.1 40.391 176.566 40.391C175.059 40.391 173.553 40.2347 172.046 39.922C170.568 39.6094 169.147 39.1546 167.783 38.5577C166.447 37.9324 165.211 37.1792 164.074 36.2981L166.248 32.2052C166.618 32.5747 167.143 32.9869 167.826 33.4416C168.536 33.868 169.346 34.2801 170.256 34.678C171.194 35.076 172.203 35.417 173.283 35.7013C174.391 35.9571 175.514 36.085 176.651 36.085C178.555 36.085 180.005 35.7581 180.999 35.1044C182.023 34.4222 182.534 33.4559 182.534 32.2052C182.534 31.182 182.207 30.372 181.554 29.7751C180.9 29.1498 179.948 28.624 178.697 28.1976C177.447 27.7713 175.954 27.345 174.221 26.9186C172.231 26.3786 170.568 25.7959 169.232 25.1706C167.897 24.5169 166.888 23.6926 166.205 22.6978C165.552 21.6746 165.225 20.3814 165.225 18.8181C165.225 16.8285 165.708 15.1516 166.674 13.7873C167.641 12.3946 168.948 11.3571 170.597 10.675C172.274 9.96442 174.15 9.60913 176.224 9.60913C177.589 9.60913 178.882 9.76546 180.104 10.0781C181.326 10.3623 182.463 10.7603 183.515 11.2719C184.595 11.7835 185.576 12.3661 186.457 13.0199L184.282 16.9422Z" fill="url(#paint12_linear_3542_1418)"/>
<path d="M144.379 40.3062C141.963 40.3062 139.917 39.8941 138.24 39.0698C136.591 38.2455 135.255 37.1228 134.232 35.7017C133.237 34.2806 132.498 32.6605 132.015 30.8414C131.56 29.0223 131.333 27.1322 131.333 25.1711V9.82275H136.108V25.1711C136.108 26.5638 136.25 27.9139 136.534 29.2213C136.819 30.5003 137.273 31.6515 137.899 32.6747C138.524 33.6979 139.362 34.5079 140.414 35.1048C141.494 35.7017 142.816 36.0001 144.379 36.0001C145.971 36.0001 147.292 35.7017 148.344 35.1048C149.424 34.4795 150.263 33.6553 150.859 32.632C151.485 31.5804 151.94 30.4151 152.224 29.136C152.508 27.857 152.65 26.5354 152.65 25.1711V9.82275H157.468V25.1711C157.468 27.2459 157.212 29.2071 156.7 31.0546C156.217 32.8736 155.45 34.4795 154.398 35.8722C153.375 37.2365 152.039 38.3166 150.39 39.1124C148.742 39.9083 146.738 40.3062 144.379 40.3062Z" fill="url(#paint13_linear_3542_1418)"/>
<path d="M124.276 35.8722V40.093H103.513V9.82275H123.892V14.0435H108.288V22.6556H121.803V26.6206H108.288V35.8722H124.276Z" fill="url(#paint14_linear_3542_1418)"/>
<path d="M72.0522 36.4265L90.3423 14.0435H72.4786V9.82275H96.0127V13.4893L78.1916 35.8722H96.0553V40.093H72.0522V36.4265Z" fill="url(#paint15_linear_3542_1418)"/>
<path d="M51.5535 9.82275H56.0727L67.8397 40.093H62.8089L59.6113 31.8646H47.9296L44.7746 40.093H39.7012L51.5535 9.82275ZM58.6734 28.326L53.8131 15.0668L48.7822 28.326H58.6734Z" fill="url(#paint16_linear_3542_1418)"/>
<path d="M9.60889 24.7446C9.60889 22.8971 9.93575 21.0923 10.5895 19.3301C11.2432 17.5394 12.1954 15.9193 13.446 14.4698C14.725 12.9918 16.274 11.8264 18.0931 10.9738C19.9121 10.0927 21.9728 9.6521 24.275 9.6521C27.0036 9.6521 29.3627 10.2774 31.3523 11.528C33.3419 12.7502 34.8199 14.3276 35.7863 16.2604L32.0345 18.7758C31.466 17.5536 30.7412 16.5873 29.8601 15.8767C29.0074 15.1661 28.0695 14.6687 27.0463 14.3845C26.0515 14.1003 25.0709 13.9582 24.1045 13.9582C22.5128 13.9582 21.1201 14.285 19.9264 14.9387C18.7326 15.564 17.7236 16.4025 16.8993 17.4542C16.1035 18.5058 15.4924 19.6853 15.0661 20.9928C14.6681 22.3002 14.4692 23.6077 14.4692 24.9151C14.4692 26.3647 14.7108 27.7716 15.194 29.1359C15.6772 30.4718 16.3451 31.6656 17.1978 32.7172C18.0789 33.7404 19.1163 34.5505 20.3101 35.1473C21.5038 35.7442 22.8113 36.0427 24.2324 36.0427C25.1988 36.0427 26.2078 35.8721 27.2594 35.531C28.3111 35.19 29.2775 34.6642 30.1586 33.9536C31.0681 33.2146 31.7787 32.2482 32.2903 31.0545L36.2552 33.3141C35.6299 34.8205 34.6494 36.0995 33.3135 37.1511C32.006 38.2028 30.5281 38.9986 28.8795 39.5387C27.2594 40.0787 25.6535 40.3487 24.0619 40.3487C21.9302 40.3487 19.9832 39.9082 18.221 39.0271C16.4588 38.1175 14.9382 36.9238 13.6591 35.4458C12.3801 33.9394 11.3853 32.2624 10.6747 30.4149C9.96417 28.539 9.60889 26.6489 9.60889 24.7446Z" fill="url(#paint17_linear_3542_1418)"/>
<path fill-rule="evenodd" clip-rule="evenodd" d="M184.404 17.9804L183.832 17.3518C183.599 17.0948 183.236 16.8016 182.721 16.4765L182.712 16.4705L182.703 16.4642C182.203 16.1221 181.6 15.7995 180.891 15.4993C180.187 15.2013 179.424 14.9558 178.602 14.764C177.797 14.5761 176.962 14.4815 176.097 14.4815C174.163 14.4815 172.845 14.8443 172.033 15.4648C171.23 16.0789 170.823 16.9165 170.823 18.0506C170.823 18.8954 171.055 19.4978 171.46 19.9277C171.907 20.3727 172.632 20.7868 173.689 21.1394C174.778 21.5022 176.153 21.8956 177.82 22.3193C179.89 22.8085 181.703 23.4015 183.251 24.1021C184.835 24.7905 186.081 25.7336 186.952 26.947C187.843 28.1886 188.26 29.789 188.26 31.6936C188.26 33.303 187.962 34.7243 187.34 35.9365C186.726 37.1339 185.864 38.1198 184.758 38.8874L184.754 38.8907L184.749 38.8939C183.662 39.6185 182.417 40.156 181.023 40.5121L181.017 40.5136L181.011 40.515C179.625 40.8395 178.142 41 176.566 41C175.017 41 173.469 40.8392 171.923 40.5183L171.921 40.5178C170.403 40.1967 168.942 39.7294 167.539 39.1157L167.532 39.1126L167.525 39.1093C166.15 38.4654 164.875 37.6888 163.701 36.7795L163.296 36.4653L166.097 31.1923L166.679 31.7745C167.007 32.1024 167.493 32.4866 168.152 32.9267C168.833 33.3342 169.614 33.7318 170.497 34.1184C171.402 34.5023 172.379 34.8331 173.429 35.1098C174.49 35.3538 175.564 35.4758 176.651 35.4758C178.501 35.4758 179.812 35.1558 180.664 34.5963C181.513 34.0295 181.926 33.2556 181.926 32.2052C181.926 31.3238 181.651 30.6879 181.144 30.2248L181.139 30.22L181.133 30.2152C180.566 29.6726 179.704 29.1839 178.501 28.774C177.272 28.355 175.798 27.9334 174.076 27.51L174.069 27.5082L174.062 27.5063C172.051 26.9604 170.352 26.3669 168.975 25.7222L168.97 25.7199L168.965 25.7176C167.557 25.0284 166.458 24.1417 165.704 23.0422L165.698 23.034L165.693 23.0257C164.961 21.88 164.616 20.4645 164.616 18.818C164.616 16.7285 165.125 14.9235 166.176 13.4385C167.212 11.9459 168.613 10.8371 170.362 10.113C172.124 9.36719 174.081 9 176.225 9C177.634 9 178.976 9.16119 180.249 9.48634C181.509 9.77978 182.686 10.1913 183.779 10.7226C184.891 11.2495 185.905 11.8518 186.82 12.5307L187.249 12.8485L184.404 17.9804ZM183.516 11.2718C182.464 10.7602 181.327 10.3623 180.105 10.078C178.883 9.76538 177.589 9.60906 176.225 9.60906C174.15 9.60906 172.274 9.96434 170.597 10.6749C168.949 11.3571 167.641 12.3945 166.675 13.7872C165.709 15.1515 165.226 16.8284 165.226 18.818C165.226 20.3813 165.552 21.6745 166.206 22.6978C166.888 23.6926 167.897 24.5168 169.233 25.1705C170.569 25.7958 172.232 26.3785 174.221 26.9185C175.955 27.3449 177.447 27.7712 178.698 28.1976C179.949 28.6239 180.901 29.1497 181.554 29.775C182.208 30.3719 182.535 31.182 182.535 32.2052C182.535 33.4558 182.023 34.4222 181 35.1043C180.005 35.758 178.556 36.0849 176.651 36.0849C175.515 36.0849 174.392 35.957 173.283 35.7012C172.203 35.417 171.194 35.0759 170.256 34.678C169.347 34.28 168.537 33.8679 167.826 33.4416C167.393 33.1525 167.022 32.8806 166.715 32.626C166.539 32.4801 166.383 32.3398 166.249 32.2052L164.074 36.2981C165.211 37.1792 166.448 37.9324 167.784 38.5577C169.148 39.1545 170.569 39.6093 172.047 39.922C173.553 40.2346 175.06 40.3909 176.566 40.3909C178.101 40.3909 179.536 40.2346 180.872 39.922C182.208 39.5809 183.388 39.0693 184.411 38.3871C185.434 37.6766 186.23 36.767 186.798 35.6585C187.367 34.5501 187.651 33.2284 187.651 31.6936C187.651 29.8745 187.253 28.4107 186.457 27.3022C185.662 26.1938 184.51 25.3127 183.004 24.6589C181.498 23.9768 179.721 23.3941 177.675 22.9109C175.998 22.4846 174.605 22.0867 173.497 21.7172C172.388 21.3477 171.564 20.8929 171.024 20.3529C170.484 19.7844 170.214 19.017 170.214 18.0506C170.214 16.7432 170.697 15.72 171.663 14.981C172.63 14.242 174.108 13.8725 176.097 13.8725C177.007 13.8725 177.888 13.972 178.741 14.1709C179.593 14.3699 180.389 14.6257 181.128 14.9383C181.867 15.251 182.507 15.5921 183.047 15.9616C183.345 16.1499 183.604 16.3339 183.824 16.5136C184.003 16.6593 184.156 16.8021 184.283 16.9421L186.457 13.0198C185.576 12.3661 184.596 11.7834 183.516 11.2718Z" fill="url(#paint18_linear_3542_1418)"/>
<path fill-rule="evenodd" clip-rule="evenodd" d="M137.971 39.616L137.968 39.6141C136.236 38.7482 134.822 37.5625 133.738 36.0571L133.733 36.0506C132.694 34.5661 131.927 32.8796 131.427 30.9973L131.426 30.993L131.424 30.9887C130.957 29.1192 130.724 27.1793 130.724 25.1706V9.21326H136.717V25.1706C136.717 26.5212 136.855 27.8275 137.129 29.0904C137.401 30.3093 137.832 31.3962 138.419 32.3566C138.989 33.2899 139.751 34.0267 140.712 34.5729C141.68 35.1073 142.894 35.3906 144.379 35.3906C145.897 35.3906 147.106 35.1061 148.041 34.576C149.034 34.0009 149.793 33.251 150.334 32.3247L150.336 32.3203C150.926 31.3281 151.358 30.2239 151.629 29.0035C151.904 27.7696 152.041 26.4923 152.041 25.1706V9.21326H158.077V25.1706C158.077 27.295 157.815 29.3103 157.288 31.2141C156.787 33.1012 155.987 34.7781 154.886 36.2372C153.8 37.6851 152.385 38.8255 150.655 39.6605C148.904 40.506 146.804 40.9148 144.379 40.9148C141.896 40.9148 139.753 40.4915 137.971 39.616ZM154.398 35.8718C155.45 34.4791 156.217 32.8732 156.701 31.0541C157.212 29.2067 157.468 27.2455 157.468 25.1706V9.82232H152.65V25.1706C152.65 26.5349 152.508 27.8566 152.224 29.1356C151.94 30.4146 151.485 31.58 150.86 32.6316C150.263 33.6548 149.424 34.4791 148.344 35.1044C147.293 35.7013 145.971 35.9997 144.379 35.9997C142.816 35.9997 141.494 35.7013 140.414 35.1044C139.363 34.5075 138.524 33.6975 137.899 32.6742C137.274 31.651 136.819 30.4999 136.535 29.2209C136.25 27.9134 136.108 26.5633 136.108 25.1706V9.82232H131.333V25.1706C131.333 27.1318 131.561 29.0219 132.015 30.841C132.499 32.66 133.238 34.2801 134.232 35.7013C135.256 37.1224 136.591 38.2451 138.24 39.0694C139.917 39.8936 141.963 40.3058 144.379 40.3058C146.738 40.3058 148.742 39.9078 150.391 39.112C152.039 38.3162 153.375 37.2361 154.398 35.8718Z" fill="url(#paint19_linear_3542_1418)"/>
<path fill-rule="evenodd" clip-rule="evenodd" d="M124.884 35.2627V40.7016H102.903V9.21326H124.501V14.6522H108.896V22.0461H122.412V27.2292H108.896V35.2627H124.884ZM108.287 26.6202H121.802V22.6552H108.287V14.0431H123.892V9.82232H103.512V40.0926H124.275V35.8718H108.287V26.6202Z" fill="url(#paint20_linear_3542_1418)"/>
<path fill-rule="evenodd" clip-rule="evenodd" d="M71.4429 36.2088L89.0578 14.6522H71.8692V9.21326H96.6214V13.7017L79.4547 35.2627H96.664V40.7016H71.4429V36.2088ZM78.1913 35.8718L96.0123 13.4889V9.82232H72.4783V14.0431H90.342L72.0519 36.426V40.0926H96.055V35.8718H78.1913Z" fill="url(#paint21_linear_3542_1418)"/>
<path fill-rule="evenodd" clip-rule="evenodd" d="M51.1383 9.21326H56.4899L68.7304 40.7016H62.3926L59.1951 32.4732H48.3488L45.1939 40.7016H38.8091L51.1383 9.21326ZM47.93 31.8642H59.6118L62.8094 40.0926H67.8402L56.0732 9.82232H51.5539L39.7016 40.0926H44.7751L47.93 31.8642ZM53.8136 15.0663L48.7827 28.3256H58.6739L53.8136 15.0663ZM53.8037 16.8091L49.6652 27.7165H57.8019L53.8037 16.8091Z" fill="url(#paint22_linear_3542_1418)"/>
<path fill-rule="evenodd" clip-rule="evenodd" d="M36.2554 33.314C35.6301 34.8204 34.6495 36.0994 33.3137 37.1511C32.0062 38.2027 30.5282 38.9986 28.8797 39.5386C27.2596 40.0786 25.6537 40.3486 24.062 40.3486C21.9303 40.3486 19.9834 39.9081 18.2212 39.027C16.459 38.1175 14.9383 36.9237 13.6593 35.4457C12.3803 33.9393 11.3855 32.2624 10.6749 30.4149C9.96434 28.539 9.60906 26.6489 9.60906 24.7445C9.60906 22.897 9.93592 21.0922 10.5896 19.33C11.2434 17.5394 12.1955 15.9193 13.4461 14.4697C14.7252 12.9917 16.2742 11.8264 18.0933 10.9737C19.9123 10.0926 21.973 9.65203 24.2752 9.65203C27.0038 9.65203 29.3629 10.2773 31.3525 11.5279C33.3421 12.7501 34.8201 14.3276 35.7864 16.2603L32.0346 18.7757C31.9467 18.5867 31.855 18.4037 31.7596 18.2269C31.2382 17.2607 30.6051 16.4773 29.8603 15.8766C29.0076 15.166 28.0697 14.6686 27.0464 14.3844C26.0516 14.1002 25.0711 13.9581 24.1047 13.9581C22.513 13.9581 21.1203 14.2849 19.9265 14.9387C18.7328 15.564 17.7238 16.4024 16.8995 17.4541C16.1037 18.5057 15.4926 19.6853 15.0662 20.9927C14.6683 22.3002 14.4694 23.6076 14.4694 24.9151C14.4694 26.3646 14.711 27.7716 15.1941 29.1358C15.6773 30.4717 16.3453 31.6655 17.1979 32.7171C18.0791 33.7403 19.1165 34.5504 20.3102 35.1473C21.504 35.7441 22.8114 36.0426 24.2326 36.0426C25.199 36.0426 26.208 35.872 27.2596 35.531C28.3113 35.1899 29.2776 34.6641 30.1587 33.9535C30.9234 33.3322 31.5474 32.5502 32.0309 31.6075C32.1224 31.4289 32.209 31.2445 32.2904 31.0544L36.2554 33.314ZM17.6654 32.3265C18.4932 33.2861 19.4646 34.0435 20.5826 34.6025C21.6864 35.1544 22.8997 35.4335 24.2326 35.4335C25.1267 35.4335 26.0722 35.2758 27.0717 34.9516C28.0507 34.6341 28.9513 34.1447 29.7758 33.4799C30.6002 32.8097 31.2538 31.927 31.7306 30.8145L31.9993 30.1875L37.024 33.051L36.8179 33.5475C36.1514 35.1533 35.1058 36.5147 33.693 37.6276C32.3274 38.7255 30.7851 39.5551 29.0708 40.1169C27.3936 40.6758 25.7233 40.9577 24.062 40.9577C21.8437 40.9577 19.8024 40.4985 17.9488 39.5717L17.9418 39.5682C16.1117 38.6237 14.5293 37.3818 13.1988 35.8443L13.195 35.8399C11.8715 34.2812 10.8416 32.5449 10.1065 30.6335L10.1053 30.6306C9.37008 28.6895 9 26.7264 9 24.7445C9 22.824 9.34 20.9479 10.0181 19.1196C10.6972 17.2601 11.6868 15.5765 12.985 14.0718L12.9856 14.0711C14.3212 12.5277 15.9386 11.3116 17.8312 10.4239C19.743 9.49855 21.8953 9.04297 24.2752 9.04297C27.0985 9.04297 29.5731 9.6908 31.674 11.0106C33.751 12.2871 35.3103 13.9462 36.3312 15.9879L36.571 16.4676L31.7826 19.678L31.4824 19.0326C30.9458 17.8789 30.274 16.9927 29.478 16.3507L29.4741 16.3476L29.4704 16.3445C28.681 15.6867 27.8197 15.2313 26.8834 14.9713L26.8791 14.9701C25.9349 14.7003 25.0106 14.5671 24.1047 14.5671C22.5979 14.5671 21.309 14.876 20.2191 15.4729L20.2141 15.4756L20.2091 15.4782C19.0927 16.063 18.152 16.8445 17.382 17.8258C16.6314 18.8186 16.0528 19.934 15.6472 21.1758C15.2671 22.4265 15.0784 23.6723 15.0784 24.9151C15.0784 26.2948 15.308 27.6323 15.7676 28.9306C16.2277 30.2019 16.8607 31.3325 17.6654 32.3265Z" fill="url(#paint23_linear_3542_1418)"/>
<defs>
<filter id="filter0_df_3542_1418" x="0.834221" y="0.758659" width="195.59" height="48.3302" filterUnits="userSpaceOnUse" color-interpolation-filters="sRGB">
<feFlood flood-opacity="0" result="BackgroundImageFix"/>
<feColorMatrix in="SourceAlpha" type="matrix" values="0 0 0 0 0 0 0 0 0 0 0 0 0 0 0 0 0 0 127 0" result="hardAlpha"/>
<feOffset dy="2.06452"/>
<feGaussianBlur stdDeviation="1.03226"/>
<feComposite in2="hardAlpha" operator="out"/>
<feColorMatrix type="matrix" values="0 0 0 0 0 0 0 0 0 0 0 0 0 0 0 0 0 0 0.6 0"/>
<feBlend mode="normal" in2="BackgroundImageFix" result="effect1_dropShadow_3542_1418"/>
<feBlend mode="normal" in="SourceGraphic" in2="effect1_dropShadow_3542_1418" result="shape"/>
<feGaussianBlur stdDeviation="4.12903" result="effect2_foregroundBlur_3542_1418"/>
</filter>
<linearGradient id="paint0_linear_3542_1418" x1="9.6084" y1="9.53284" x2="174.73" y2="74.8944" gradientUnits="userSpaceOnUse">
<stop stop-color="#F9BC2E"/>
<stop offset="0.132392" stop-color="#E29A1E"/>
<stop offset="0.302201" stop-color="#FFCD38"/>
<stop offset="0.728712" stop-color="#F0AF30"/>
<stop offset="0.834676" stop-color="#E29A1E"/>
<stop offset="0.960427" stop-color="#FFCD38"/>
<stop offset="1" stop-color="#DD931A"/>
</linearGradient>
<linearGradient id="paint1_linear_3542_1418" x1="9.6084" y1="9.53284" x2="174.73" y2="74.8944" gradientUnits="userSpaceOnUse">
<stop stop-color="#F9BC2E"/>
<stop offset="0.132392" stop-color="#E29A1E"/>
<stop offset="0.302201" stop-color="#FFCD38"/>
<stop offset="0.728712" stop-color="#F0AF30"/>
<stop offset="0.834676" stop-color="#E29A1E"/>
<stop offset="0.960427" stop-color="#FFCD38"/>
<stop offset="1" stop-color="#DD931A"/>
</linearGradient>
<linearGradient id="paint2_linear_3542_1418" x1="9.6084" y1="9.53284" x2="174.73" y2="74.8944" gradientUnits="userSpaceOnUse">
<stop stop-color="#F9BC2E"/>
<stop offset="0.132392" stop-color="#E29A1E"/>
<stop offset="0.302201" stop-color="#FFCD38"/>
<stop offset="0.728712" stop-color="#F0AF30"/>
<stop offset="0.834676" stop-color="#E29A1E"/>
<stop offset="0.960427" stop-color="#FFCD38"/>
<stop offset="1" stop-color="#DD931A"/>
</linearGradient>
<linearGradient id="paint3_linear_3542_1418" x1="9.6084" y1="9.53284" x2="174.73" y2="74.8944" gradientUnits="userSpaceOnUse">
<stop stop-color="#F9BC2E"/>
<stop offset="0.132392" stop-color="#E29A1E"/>
<stop offset="0.302201" stop-color="#FFCD38"/>
<stop offset="0.728712" stop-color="#F0AF30"/>
<stop offset="0.834676" stop-color="#E29A1E"/>
<stop offset="0.960427" stop-color="#FFCD38"/>
<stop offset="1" stop-color="#DD931A"/>
</linearGradient>
<linearGradient id="paint4_linear_3542_1418" x1="9.6084" y1="9.53284" x2="174.73" y2="74.8944" gradientUnits="userSpaceOnUse">
<stop stop-color="#F9BC2E"/>
<stop offset="0.132392" stop-color="#E29A1E"/>
<stop offset="0.302201" stop-color="#FFCD38"/>
<stop offset="0.728712" stop-color="#F0AF30"/>
<stop offset="0.834676" stop-color="#E29A1E"/>
<stop offset="0.960427" stop-color="#FFCD38"/>
<stop offset="1" stop-color="#DD931A"/>
</linearGradient>
<linearGradient id="paint5_linear_3542_1418" x1="9.6084" y1="9.53284" x2="174.73" y2="74.8944" gradientUnits="userSpaceOnUse">
<stop stop-color="#F9BC2E"/>
<stop offset="0.132392" stop-color="#E29A1E"/>
<stop offset="0.302201" stop-color="#FFCD38"/>
<stop offset="0.728712" stop-color="#F0AF30"/>
<stop offset="0.834676" stop-color="#E29A1E"/>
<stop offset="0.960427" stop-color="#FFCD38"/>
<stop offset="1" stop-color="#DD931A"/>
</linearGradient>
<linearGradient id="paint6_linear_3542_1418" x1="9.6084" y1="9.53284" x2="174.73" y2="74.8944" gradientUnits="userSpaceOnUse">
<stop stop-color="#F9BC2E"/>
<stop offset="0.132392" stop-color="#E29A1E"/>
<stop offset="0.302201" stop-color="#FFCD38"/>
<stop offset="0.728712" stop-color="#F0AF30"/>
<stop offset="0.834676" stop-color="#E29A1E"/>
<stop offset="0.960427" stop-color="#FFCD38"/>
<stop offset="1" stop-color="#DD931A"/>
</linearGradient>
<linearGradient id="paint7_linear_3542_1418" x1="9.6084" y1="9.53284" x2="174.73" y2="74.8944" gradientUnits="userSpaceOnUse">
<stop stop-color="#F9BC2E"/>
<stop offset="0.132392" stop-color="#E29A1E"/>
<stop offset="0.302201" stop-color="#FFCD38"/>
<stop offset="0.728712" stop-color="#F0AF30"/>
<stop offset="0.834676" stop-color="#E29A1E"/>
<stop offset="0.960427" stop-color="#FFCD38"/>
<stop offset="1" stop-color="#DD931A"/>
</linearGradient>
<linearGradient id="paint8_linear_3542_1418" x1="9.6084" y1="9.53284" x2="174.73" y2="74.8944" gradientUnits="userSpaceOnUse">
<stop stop-color="#F9BC2E"/>
<stop offset="0.132392" stop-color="#E29A1E"/>
<stop offset="0.302201" stop-color="#FFCD38"/>
<stop offset="0.728712" stop-color="#F0AF30"/>
<stop offset="0.834676" stop-color="#E29A1E"/>
<stop offset="0.960427" stop-color="#FFCD38"/>
<stop offset="1" stop-color="#DD931A"/>
</linearGradient>
<linearGradient id="paint9_linear_3542_1418" x1="9.6084" y1="9.53284" x2="174.73" y2="74.8944" gradientUnits="userSpaceOnUse">
<stop stop-color="#F9BC2E"/>
<stop offset="0.132392" stop-color="#E29A1E"/>
<stop offset="0.302201" stop-color="#FFCD38"/>
<stop offset="0.728712" stop-color="#F0AF30"/>
<stop offset="0.834676" stop-color="#E29A1E"/>
<stop offset="0.960427" stop-color="#FFCD38"/>
<stop offset="1" stop-color="#DD931A"/>
</linearGradient>
<linearGradient id="paint10_linear_3542_1418" x1="9.6084" y1="9.53284" x2="174.73" y2="74.8944" gradientUnits="userSpaceOnUse">
<stop stop-color="#F9BC2E"/>
<stop offset="0.132392" stop-color="#E29A1E"/>
<stop offset="0.302201" stop-color="#FFCD38"/>
<stop offset="0.728712" stop-color="#F0AF30"/>
<stop offset="0.834676" stop-color="#E29A1E"/>
<stop offset="0.960427" stop-color="#FFCD38"/>
<stop offset="1" stop-color="#DD931A"/>
</linearGradient>
<linearGradient id="paint11_linear_3542_1418" x1="9.6084" y1="9.53284" x2="174.73" y2="74.8944" gradientUnits="userSpaceOnUse">
<stop stop-color="#F9BC2E"/>
<stop offset="0.132392" stop-color="#E29A1E"/>
<stop offset="0.302201" stop-color="#FFCD38"/>
<stop offset="0.728712" stop-color="#F0AF30"/>
<stop offset="0.834676" stop-color="#E29A1E"/>
<stop offset="0.960427" stop-color="#FFCD38"/>
<stop offset="1" stop-color="#DD931A"/>
</linearGradient>
<linearGradient id="paint12_linear_3542_1418" x1="164.074" y1="9.60913" x2="189.296" y2="10.9312" gradientUnits="userSpaceOnUse">
<stop stop-color="#F9BC2E"/>
<stop offset="0.132392" stop-color="#E29A1E"/>
<stop offset="0.302201" stop-color="#FFCD38"/>
<stop offset="0.728712" stop-color="#F0AF30"/>
<stop offset="0.834676" stop-color="#E29A1E"/>
<stop offset="0.960427" stop-color="#FFCD38"/>
<stop offset="1" stop-color="#DD931A"/>
</linearGradient>
<linearGradient id="paint13_linear_3542_1418" x1="131.333" y1="9.82275" x2="159.273" y2="11.4621" gradientUnits="userSpaceOnUse">
<stop stop-color="#F9BC2E"/>
<stop offset="0.132392" stop-color="#E29A1E"/>
<stop offset="0.302201" stop-color="#FFCD38"/>
<stop offset="0.728712" stop-color="#F0AF30"/>
<stop offset="0.834676" stop-color="#E29A1E"/>
<stop offset="0.960427" stop-color="#FFCD38"/>
<stop offset="1" stop-color="#DD931A"/>
</linearGradient>
<linearGradient id="paint14_linear_3542_1418" x1="103.513" y1="9.82275" x2="125.737" y2="10.866" gradientUnits="userSpaceOnUse">
<stop stop-color="#F9BC2E"/>
<stop offset="0.132392" stop-color="#E29A1E"/>
<stop offset="0.302201" stop-color="#FFCD38"/>
<stop offset="0.728712" stop-color="#F0AF30"/>
<stop offset="0.834676" stop-color="#E29A1E"/>
<stop offset="0.960427" stop-color="#FFCD38"/>
<stop offset="1" stop-color="#DD931A"/>
</linearGradient>
<linearGradient id="paint15_linear_3542_1418" x1="72.0522" y1="9.82275" x2="97.7259" y2="11.216" gradientUnits="userSpaceOnUse">
<stop stop-color="#F9BC2E"/>
<stop offset="0.132392" stop-color="#E29A1E"/>
<stop offset="0.302201" stop-color="#FFCD38"/>
<stop offset="0.728712" stop-color="#F0AF30"/>
<stop offset="0.834676" stop-color="#E29A1E"/>
<stop offset="0.960427" stop-color="#FFCD38"/>
<stop offset="1" stop-color="#DD931A"/>
</linearGradient>
<linearGradient id="paint16_linear_3542_1418" x1="39.7012" y1="9.82275" x2="69.7651" y2="11.7354" gradientUnits="userSpaceOnUse">
<stop stop-color="#F9BC2E"/>
<stop offset="0.132392" stop-color="#E29A1E"/>
<stop offset="0.302201" stop-color="#FFCD38"/>
<stop offset="0.728712" stop-color="#F0AF30"/>
<stop offset="0.834676" stop-color="#E29A1E"/>
<stop offset="0.960427" stop-color="#FFCD38"/>
<stop offset="1" stop-color="#DD931A"/>
</linearGradient>
<linearGradient id="paint17_linear_3542_1418" x1="9.60889" y1="9.6521" x2="38.0933" y2="11.3443" gradientUnits="userSpaceOnUse">
<stop stop-color="#F9BC2E"/>
<stop offset="0.132392" stop-color="#E29A1E"/>
<stop offset="0.302201" stop-color="#FFCD38"/>
<stop offset="0.728712" stop-color="#F0AF30"/>
<stop offset="0.834676" stop-color="#E29A1E"/>
<stop offset="0.960427" stop-color="#FFCD38"/>
<stop offset="1" stop-color="#DD931A"/>
</linearGradient>
<linearGradient id="paint18_linear_3542_1418" x1="163.296" y1="9" x2="190" y2="10.4257" gradientUnits="userSpaceOnUse">
<stop stop-color="#F9BC2E"/>
<stop offset="0.132392" stop-color="#E29A1E"/>
<stop offset="0.302201" stop-color="#FFCD38"/>
<stop offset="0.728712" stop-color="#F0AF30"/>
<stop offset="0.834676" stop-color="#E29A1E"/>
<stop offset="0.960427" stop-color="#FFCD38"/>
<stop offset="1" stop-color="#DD931A"/>
</linearGradient>
<linearGradient id="paint19_linear_3542_1418" x1="130.724" y1="9.21326" x2="159.965" y2="10.9399" gradientUnits="userSpaceOnUse">
<stop stop-color="#F9BC2E"/>
<stop offset="0.132392" stop-color="#E29A1E"/>
<stop offset="0.302201" stop-color="#FFCD38"/>
<stop offset="0.728712" stop-color="#F0AF30"/>
<stop offset="0.834676" stop-color="#E29A1E"/>
<stop offset="0.960427" stop-color="#FFCD38"/>
<stop offset="1" stop-color="#DD931A"/>
</linearGradient>
<linearGradient id="paint20_linear_3542_1418" x1="102.903" y1="9.21326" x2="126.43" y2="10.3372" gradientUnits="userSpaceOnUse">
<stop stop-color="#F9BC2E"/>
<stop offset="0.132392" stop-color="#E29A1E"/>
<stop offset="0.302201" stop-color="#FFCD38"/>
<stop offset="0.728712" stop-color="#F0AF30"/>
<stop offset="0.834676" stop-color="#E29A1E"/>
<stop offset="0.960427" stop-color="#FFCD38"/>
<stop offset="1" stop-color="#DD931A"/>
</linearGradient>
<linearGradient id="paint21_linear_3542_1418" x1="71.4429" y1="9.21326" x2="98.4178" y2="10.6919" gradientUnits="userSpaceOnUse">
<stop stop-color="#F9BC2E"/>
<stop offset="0.132392" stop-color="#E29A1E"/>
<stop offset="0.302201" stop-color="#FFCD38"/>
<stop offset="0.728712" stop-color="#F0AF30"/>
<stop offset="0.834676" stop-color="#E29A1E"/>
<stop offset="0.960427" stop-color="#FFCD38"/>
<stop offset="1" stop-color="#DD931A"/>
</linearGradient>
<linearGradient id="paint22_linear_3542_1418" x1="38.8091" y1="9.21326" x2="70.772" y2="11.2918" gradientUnits="userSpaceOnUse">
<stop stop-color="#F9BC2E"/>
<stop offset="0.132392" stop-color="#E29A1E"/>
<stop offset="0.302201" stop-color="#FFCD38"/>
<stop offset="0.728712" stop-color="#F0AF30"/>
<stop offset="0.834676" stop-color="#E29A1E"/>
<stop offset="0.960427" stop-color="#FFCD38"/>
<stop offset="1" stop-color="#DD931A"/>
</linearGradient>
<linearGradient id="paint23_linear_3542_1418" x1="9" y1="9.04297" x2="38.9546" y2="10.8431" gradientUnits="userSpaceOnUse">
<stop stop-color="#F9BC2E"/>
<stop offset="0.132392" stop-color="#E29A1E"/>
<stop offset="0.302201" stop-color="#FFCD38"/>
<stop offset="0.728712" stop-color="#F0AF30"/>
<stop offset="0.834676" stop-color="#E29A1E"/>
<stop offset="0.960427" stop-color="#FFCD38"/>
<stop offset="1" stop-color="#DD931A"/>
</linearGradient>
</defs>
</svg>
