<svg width="180" height="32" viewBox="0 0 180 32" fill="none" xmlns="http://www.w3.org/2000/svg">
<path fill-rule="evenodd" clip-rule="evenodd" d="M176.128 8.98045L175.554 8.35184C175.319 8.0948 174.955 7.80162 174.438 7.4765L174.429 7.47053L174.419 7.46421C173.917 7.1221 173.313 6.79949 172.6 6.49926C171.893 6.2013 171.127 5.95582 170.302 5.76404C169.493 5.57608 168.655 5.48154 167.787 5.48154C165.845 5.48154 164.521 5.84429 163.706 6.46478C162.9 7.07892 162.491 7.91648 162.491 9.05063C162.491 9.89536 162.723 10.4978 163.13 10.9277C163.58 11.3727 164.307 11.7868 165.369 12.1394C166.462 12.5022 167.843 12.8956 169.516 13.3193C171.596 13.8085 173.415 14.4015 174.97 15.1021C176.561 15.7905 177.812 16.7336 178.686 17.947C179.581 19.1886 180 20.789 180 22.6936C180 24.303 179.701 25.7243 179.076 26.9365C178.46 28.1339 177.594 29.1198 176.484 29.8874L176.479 29.8907L176.474 29.8939C175.383 30.6185 174.133 31.156 172.733 31.5121L172.727 31.5136L172.721 31.515C171.329 31.8395 169.84 32 168.258 32C166.702 32 165.148 31.8392 163.596 31.5183L163.593 31.5178C162.069 31.1967 160.602 30.7294 159.194 30.1157L159.187 30.1126L159.18 30.1093C157.798 29.4654 156.518 28.6888 155.34 27.7795L154.933 27.4653L157.745 22.1923L158.33 22.7745C158.659 23.1024 159.147 23.4866 159.809 23.9267C160.492 24.3342 161.276 24.7318 162.163 25.1184C163.072 25.5023 164.054 25.8331 165.108 26.1098C166.173 26.3538 167.251 26.4758 168.343 26.4758C170.2 26.4758 171.517 26.1558 172.373 25.5963C173.225 25.0295 173.64 24.2556 173.64 23.2052C173.64 22.3238 173.363 21.6879 172.854 21.2248L172.849 21.22L172.844 21.2152C172.274 20.6726 171.408 20.1839 170.201 19.774C168.967 19.355 167.486 18.9334 165.757 18.51L165.75 18.5082L165.743 18.5063C163.723 17.9604 162.018 17.3669 160.635 16.7222L160.63 16.7199L160.626 16.7176C159.211 16.0284 158.107 15.1417 157.35 14.0422L157.345 14.034L157.339 14.0257C156.605 12.88 156.259 11.4645 156.259 9.81804C156.259 7.72845 156.769 5.92346 157.824 4.43851C158.865 2.94594 160.272 1.83715 162.028 1.11299C163.797 0.367194 165.762 0 167.915 0C169.33 0 170.677 0.161187 171.956 0.486338C173.221 0.779776 174.403 1.19133 175.5 1.72263C176.617 2.24948 177.635 2.85176 178.554 3.53066L178.984 3.84852L176.128 8.98045ZM158.366 23.626C158.583 23.805 158.831 23.9926 159.111 24.1887C158.644 23.8614 158.264 23.5576 157.972 23.2778C158.089 23.3901 158.22 23.5061 158.366 23.626Z" fill="url(#paint0_linear_3773_12462)"/>
<path d="M129.504 30.616L129.5 30.6141C127.761 29.7482 126.341 28.5625 125.253 27.0571L125.248 27.0506C124.205 25.5661 123.434 23.8796 122.932 21.9973L122.931 21.993L122.93 21.9887C122.46 20.1192 122.227 18.1793 122.227 16.1706V0.213257H128.244V16.1706C128.244 17.5212 128.383 18.8275 128.658 20.0904C128.931 21.3093 129.363 22.3962 129.953 23.3566C130.525 24.2899 131.29 25.0267 132.255 25.5729C133.228 26.1073 134.446 26.3906 135.938 26.3906C137.462 26.3906 138.676 26.1061 139.615 25.576C140.612 25.0009 141.374 24.251 141.917 23.3247L141.919 23.3203C142.512 22.3281 142.946 21.2239 143.218 20.0035C143.493 18.7696 143.632 17.4923 143.632 16.1706V0.213257H149.692V16.1706C149.692 18.295 149.429 20.3103 148.9 22.2141C148.397 24.1012 147.594 25.7781 146.488 27.2372C145.397 28.6851 143.977 29.8255 142.24 30.6605C140.482 31.506 138.373 31.9148 135.938 31.9148C133.445 31.9148 131.292 31.4915 129.504 30.616Z" fill="url(#paint1_linear_3773_12462)"/>
<path d="M116.363 26.2627V31.7016H94.291V0.213257H115.977V5.65216H100.309V13.0461H113.88V18.2292H100.309V26.2627H116.363Z" fill="url(#paint2_linear_3773_12462)"/>
<path d="M62.7007 27.2088L80.3883 5.65216H63.1288V0.213257H87.9831V4.70171L70.7456 26.2627H88.0259V31.7016H62.7007V27.2088Z" fill="url(#paint3_linear_3773_12462)"/>
<path fill-rule="evenodd" clip-rule="evenodd" d="M29.9321 31.7016L42.3123 0.213257H47.6859L59.977 31.7016H53.613L50.4022 23.4732H39.5112L36.3433 31.7016H29.9321ZM44.9887 7.80915L40.8331 18.7165H49.0033L44.9887 7.80915Z" fill="url(#paint4_linear_3773_12462)"/>
<path d="M8.70113 23.3265C9.53234 24.2861 10.5078 25.0435 11.6304 25.6025C12.7387 26.1544 13.9571 26.4335 15.2955 26.4335C16.1933 26.4335 17.1426 26.2758 18.1463 25.9516C19.1294 25.6341 20.0336 25.1447 20.8615 24.4799C21.6894 23.8097 22.3457 22.927 22.8244 21.8145L23.0943 21.1875L28.1397 24.051L27.9328 24.5475C27.2635 26.1533 26.2136 27.5147 24.795 28.6276C23.4237 29.7255 21.8751 30.5551 20.1536 31.1169C18.4695 31.6758 16.7923 31.9577 15.1242 31.9577C12.8967 31.9577 10.847 31.4985 8.98572 30.5717L8.97871 30.5682C7.14103 29.6237 5.55212 28.3818 4.21608 26.8443L4.21232 26.8399C2.8834 25.2812 1.84918 23.5449 1.11102 21.6335L1.1099 21.6306C0.371603 19.6895 0 17.7264 0 15.7445C0 13.824 0.341408 11.9479 1.02228 10.1196C1.70416 8.26007 2.69853 6.57581 4.00203 5.07114C5.3432 3.52771 6.96722 2.31161 8.86769 1.42386C10.7874 0.498554 12.9485 0.0429688 15.3383 0.0429688C18.1732 0.0429688 20.658 0.690804 22.7676 2.01062C24.8531 3.28709 26.4189 4.94622 27.444 6.98795L27.6848 7.46758L22.8766 10.678L22.5752 10.0326C22.0364 8.87891 21.3618 7.99269 20.5625 7.35072L20.5586 7.34765L20.5549 7.34451C19.7622 6.68667 18.8973 6.23133 17.9572 5.97126L17.9529 5.97006C17.0048 5.70029 16.0767 5.56714 15.167 5.56714C13.654 5.56714 12.3598 5.87599 11.2654 6.47287L11.2604 6.47558L11.2554 6.47819C10.1343 7.063 9.18978 7.84453 8.41664 8.82576C7.66294 9.81859 7.08187 10.934 6.67459 12.1758C6.29297 13.4265 6.1035 14.6723 6.1035 15.9151C6.1035 17.2948 6.33404 18.6323 6.79552 19.9306C7.25748 21.2019 7.89315 22.3325 8.70113 23.3265Z" fill="url(#paint5_linear_3773_12462)"/>
<defs>
<linearGradient id="paint0_linear_3773_12462" x1="154.933" y1="0" x2="181.747" y2="1.4375" gradientUnits="userSpaceOnUse">
<stop stop-color="#F9BC2E"/>
<stop offset="0.132392" stop-color="#E29A1E"/>
<stop offset="0.302201" stop-color="#FFCD38"/>
<stop offset="0.728712" stop-color="#F0AF30"/>
<stop offset="0.834676" stop-color="#E29A1E"/>
<stop offset="0.960427" stop-color="#FFCD38"/>
<stop offset="1" stop-color="#DD931A"/>
</linearGradient>
<linearGradient id="paint1_linear_3773_12462" x1="122.227" y1="0.213257" x2="151.587" y2="1.95414" gradientUnits="userSpaceOnUse">
<stop stop-color="#F9BC2E"/>
<stop offset="0.132392" stop-color="#E29A1E"/>
<stop offset="0.302201" stop-color="#FFCD38"/>
<stop offset="0.728712" stop-color="#F0AF30"/>
<stop offset="0.834676" stop-color="#E29A1E"/>
<stop offset="0.960427" stop-color="#FFCD38"/>
<stop offset="1" stop-color="#DD931A"/>
</linearGradient>
<linearGradient id="paint2_linear_3773_12462" x1="94.291" y1="0.213257" x2="117.914" y2="1.34647" gradientUnits="userSpaceOnUse">
<stop stop-color="#F9BC2E"/>
<stop offset="0.132392" stop-color="#E29A1E"/>
<stop offset="0.302201" stop-color="#FFCD38"/>
<stop offset="0.728712" stop-color="#F0AF30"/>
<stop offset="0.834676" stop-color="#E29A1E"/>
<stop offset="0.960427" stop-color="#FFCD38"/>
<stop offset="1" stop-color="#DD931A"/>
</linearGradient>
<linearGradient id="paint3_linear_3773_12462" x1="62.7007" y1="0.213257" x2="89.7863" y2="1.70411" gradientUnits="userSpaceOnUse">
<stop stop-color="#F9BC2E"/>
<stop offset="0.132392" stop-color="#E29A1E"/>
<stop offset="0.302201" stop-color="#FFCD38"/>
<stop offset="0.728712" stop-color="#F0AF30"/>
<stop offset="0.834676" stop-color="#E29A1E"/>
<stop offset="0.960427" stop-color="#FFCD38"/>
<stop offset="1" stop-color="#DD931A"/>
</linearGradient>
<linearGradient id="paint4_linear_3773_12462" x1="29.9321" y1="0.213257" x2="62.0259" y2="2.30897" gradientUnits="userSpaceOnUse">
<stop stop-color="#F9BC2E"/>
<stop offset="0.132392" stop-color="#E29A1E"/>
<stop offset="0.302201" stop-color="#FFCD38"/>
<stop offset="0.728712" stop-color="#F0AF30"/>
<stop offset="0.834676" stop-color="#E29A1E"/>
<stop offset="0.960427" stop-color="#FFCD38"/>
<stop offset="1" stop-color="#DD931A"/>
</linearGradient>
<linearGradient id="paint5_linear_3773_12462" x1="0" y1="0.0429688" x2="30.0774" y2="1.8579" gradientUnits="userSpaceOnUse">
<stop stop-color="#F9BC2E"/>
<stop offset="0.132392" stop-color="#E29A1E"/>
<stop offset="0.302201" stop-color="#FFCD38"/>
<stop offset="0.728712" stop-color="#F0AF30"/>
<stop offset="0.834676" stop-color="#E29A1E"/>
<stop offset="0.960427" stop-color="#FFCD38"/>
<stop offset="1" stop-color="#DD931A"/>
</linearGradient>
</defs>
</svg>
