<svg width="24" height="4" viewBox="0 0 24 4" fill="none" xmlns="http://www.w3.org/2000/svg">
<path d="M24 1.99957C24 2.38148 23.8483 2.74775 23.5782 3.0178C23.3082 3.28785 22.9419 3.43957 22.56 3.43957H12H1.44C1.05809 3.43957 0.691819 3.28785 0.421766 3.0178C0.151714 2.74775 0 2.38148 0 1.99957C0 1.61766 0.151714 1.25139 0.421766 0.981337C0.691819 0.711285 1.05809 0.55957 1.44 0.55957H12H22.56C22.9419 0.55957 23.3082 0.711285 23.5782 0.981337C23.8483 1.25139 24 1.61766 24 1.99957Z" fill="url(#paint0_linear_3542_945)"/>
<defs>
<linearGradient id="paint0_linear_3542_945" x1="0" y1="0.55957" x2="19.4272" y2="11.6391" gradientUnits="userSpaceOnUse">
<stop stop-color="#F9BC2E"/>
<stop offset="0.132392" stop-color="#E29A1E"/>
<stop offset="0.302201" stop-color="#FFCD38"/>
<stop offset="0.728712" stop-color="#F0AF30"/>
<stop offset="0.834676" stop-color="#E29A1E"/>
<stop offset="0.960427" stop-color="#FFCD38"/>
<stop offset="1" stop-color="#DD931A"/>
</linearGradient>
</defs>
</svg>
