<svg width="30" height="29" viewBox="0 0 30 29" fill="none" xmlns="http://www.w3.org/2000/svg">
<g id="Vector">
<mask id="path-1-inside-1_3397_23957" fill="white">
<path d="M29.9217 10.9588C29.7254 10.346 29.1866 9.91078 28.5491 9.85283L19.8903 9.05976L16.4664 0.975933C16.2139 0.383493 15.6389 0 15.0001 0C14.3613 0 13.7863 0.383493 13.5339 0.977318L10.1099 9.05976L1.44977 9.85283C0.813461 9.91217 0.276034 10.346 0.0785045 10.9588C-0.119025 11.5715 0.063398 12.2436 0.544748 12.6673L7.08978 18.4573L5.1598 27.0329C5.01858 27.6634 5.2612 28.3152 5.77986 28.6934C6.05864 28.8966 6.38481 29 6.71372 29C6.99731 29 7.27861 28.9229 7.53107 28.7705L15.0001 24.2676L22.4664 28.7705C23.0128 29.102 23.7015 29.0718 24.219 28.6934C24.7379 28.3141 24.9803 27.662 24.8391 27.0329L22.9091 18.4573L29.4541 12.6684C29.9355 12.2436 30.1193 11.5727 29.9217 10.9588Z"/>
</mask>
<path d="M29.9217 10.9588C29.7254 10.346 29.1866 9.91078 28.5491 9.85283L19.8903 9.05976L16.4664 0.975933C16.2139 0.383493 15.6389 0 15.0001 0C14.3613 0 13.7863 0.383493 13.5339 0.977318L10.1099 9.05976L1.44977 9.85283C0.813461 9.91217 0.276034 10.346 0.0785045 10.9588C-0.119025 11.5715 0.063398 12.2436 0.544748 12.6673L7.08978 18.4573L5.1598 27.0329C5.01858 27.6634 5.2612 28.3152 5.77986 28.6934C6.05864 28.8966 6.38481 29 6.71372 29C6.99731 29 7.27861 28.9229 7.53107 28.7705L15.0001 24.2676L22.4664 28.7705C23.0128 29.102 23.7015 29.0718 24.219 28.6934C24.7379 28.3141 24.9803 27.662 24.8391 27.0329L22.9091 18.4573L29.4541 12.6684C29.9355 12.2436 30.1193 11.5727 29.9217 10.9588Z" stroke="url(#paint0_linear_3397_23957)" stroke-width="6" mask="url(#path-1-inside-1_3397_23957)"/>
</g>
<defs>
<linearGradient id="paint0_linear_3397_23957" x1="15" y1="0" x2="15" y2="29" gradientUnits="userSpaceOnUse">
<stop stop-color="#FCCD6D"/>
<stop offset="1" stop-color="#967A41"/>
</linearGradient>
</defs>
</svg>
