<svg width="98" height="32" viewBox="0 0 98 32" fill="none" xmlns="http://www.w3.org/2000/svg">
<path fill-rule="evenodd" clip-rule="evenodd" d="M40.1816 25.5651L43.24 7.42578H48.1968L45.1384 25.5651H40.1816Z" fill="white"/>
<path fill-rule="evenodd" clip-rule="evenodd" d="M62.9598 7.84761C62.0108 7.53122 60.5342 7.10938 58.5305 7.10938C53.6793 7.10938 50.3046 9.53498 50.199 13.1207C50.199 15.6518 52.7302 17.1282 54.523 17.9719C56.5268 18.921 57.1595 19.4484 57.1595 20.292C57.1595 21.4521 55.5776 21.9794 54.2066 21.9794C52.2029 21.9794 51.1482 21.7685 49.5663 21.0303L48.8281 20.8193L48.1953 24.8269C49.3554 25.3542 51.4646 25.776 53.6793 25.776C58.8469 25.776 62.2216 23.3504 62.3271 19.6592C62.3271 17.5501 60.9561 15.9681 58.1086 14.7026C56.4213 13.8589 55.3667 13.3316 55.3667 12.4879C55.3667 11.7496 56.3158 10.906 58.2142 10.906C59.796 10.906 60.9561 11.2224 61.9053 11.5388L62.3271 11.7496L62.9598 7.84761Z" fill="white"/>
<path fill-rule="evenodd" clip-rule="evenodd" d="M75.7217 7.42578H71.8196C70.6596 7.42578 69.8158 7.74216 69.2886 8.90226L61.9062 25.5651H67.0739C67.0739 25.5651 67.9175 23.3504 68.1285 22.8231C68.7613 22.8231 73.7179 22.8231 74.4561 22.8231C74.667 23.4559 75.0889 25.5651 75.0889 25.5651H79.6238L75.7217 7.42578ZM69.6049 19.132C70.0268 18.0774 71.5032 14.0698 71.5032 14.0698C71.5032 14.0698 71.9251 13.0152 72.2414 12.277L72.5579 13.8589C72.5579 13.8589 73.5071 18.1829 73.7179 19.132H69.6049Z" fill="white"/>
<path fill-rule="evenodd" clip-rule="evenodd" d="M35.9621 7.42578L31.2163 19.7648L30.689 17.2337C29.7399 14.3863 26.9978 11.2223 23.834 9.64048L28.2633 25.5651H33.431L41.2351 7.42578H35.9621Z" fill="white"/>
<path fill-rule="evenodd" clip-rule="evenodd" d="M26.681 7.42578H18.7714L18.666 7.84762C24.8882 9.32413 29.0012 12.9098 30.6886 17.2337L28.8958 9.00768C28.6849 7.84762 27.7357 7.42578 26.681 7.42578Z" fill="white"/>
</svg>
